<svg width="11" height="21" viewBox="0 0 11 21" fill="none" xmlns="http://www.w3.org/2000/svg">
<path d="M3.10947 11.7917C3.03097 11.7917 1.38422 11.7922 0.624719 11.7914C0.233719 11.7912 0.0942188 11.6507 0.0942188 11.2572C0.0935937 10.2464 0.0935937 9.23565 0.0942188 8.2249C0.0944688 7.8364 0.241969 7.68815 0.627969 7.6879C1.38747 7.6874 3.02522 7.68765 3.10947 7.68765V5.48715C3.10997 4.49365 3.28722 3.54265 3.79197 2.6719C4.30872 1.78065 5.06072 1.17015 6.02447 0.817154C6.64172 0.590904 7.28247 0.500654 7.93747 0.500154C8.75697 0.499654 9.57647 0.500404 10.3962 0.501904C10.7485 0.502404 10.9047 0.658154 10.9055 1.0129C10.907 1.96365 10.907 2.9144 10.9055 3.8649C10.905 4.2234 10.7552 4.3674 10.395 4.3714C9.72322 4.37865 9.05097 4.37415 8.37997 4.40115C7.70222 4.40115 7.34572 4.73215 7.34572 5.43365C7.32947 6.17565 7.33897 6.9184 7.33897 7.6874C7.40247 7.6874 9.33122 7.68715 10.2327 7.6874C10.6422 7.6874 10.7822 7.82815 10.7822 8.2399C10.7822 9.24515 10.782 10.2507 10.7812 11.2559C10.781 11.6617 10.6495 11.7912 10.2375 11.7914C9.33597 11.7919 7.41472 11.7917 7.33072 11.7917V19.9279C7.33072 20.3617 7.19422 20.4999 6.76622 20.4999H3.63547C3.25722 20.4999 3.10972 20.3529 3.10972 19.9747L3.10947 11.7917Z" fill="#3D6AD6"/>
</svg>
