<svg width="21" height="21" viewBox="0 0 21 21" fill="none" xmlns="http://www.w3.org/2000/svg">
<path d="M19.1739 10.6834C19.1739 9.90449 19.1121 9.33612 18.9782 8.7467H10.2724V12.2621H15.3825C15.2795 13.1358 14.7232 14.4515 13.4868 15.3355L13.4695 15.4532L16.2221 17.6317L16.4128 17.6512C18.1642 15.9987 19.1739 13.5673 19.1739 10.6834" fill="#4285F4"/>
<path d="M10.2724 19.9457C12.7759 19.9457 14.8776 19.1036 16.4128 17.6512L13.4868 15.3355C12.7038 15.8934 11.6529 16.2828 10.2724 16.2828C7.82038 16.2828 5.73926 14.6304 4.99739 12.3464L4.88865 12.3558L2.02646 14.6188L1.98903 14.7251C3.51381 17.8195 6.64583 19.9457 10.2724 19.9457Z" fill="#34A853"/>
<path d="M4.9974 12.3464C4.80165 11.757 4.68836 11.1254 4.68836 10.4729C4.68836 9.82025 4.80165 9.18875 4.9871 8.59933L4.98191 8.4738L2.08385 6.17448L1.98903 6.22056C1.3606 7.50468 1 8.94668 1 10.4729C1 11.999 1.3606 13.441 1.98903 14.7251L4.9974 12.3464" fill="#FBBC05"/>
<path d="M10.2724 4.66281C12.0135 4.66281 13.188 5.43116 13.8577 6.07326L16.4746 3.46294C14.8674 1.93676 12.7759 1 10.2724 1C6.64583 1 3.51381 3.12611 1.98903 6.22056L4.98709 8.59933C5.73926 6.31532 7.82038 4.66281 10.2724 4.66281" fill="#EB4335"/>
</svg>
