<svg width="45" height="45" viewBox="0 0 45 45" fill="none" xmlns="http://www.w3.org/2000/svg">
<circle cx="22.5" cy="22.5" r="22" fill="white" stroke="#EBEBEB"/>
<g clip-path="url(#clip0_2970_8882)">
<path d="M22 34C28.6274 34 34 28.6274 34 22C34 15.3726 28.6274 10 22 10C15.3726 10 10 15.3726 10 22C10 28.6274 15.3726 34 22 34Z" fill="#34AADF"/>
<path d="M14.9958 21.8959C14.9958 21.8959 20.9958 19.4335 23.0767 18.5664C23.8744 18.2196 26.5796 17.1098 26.5796 17.1098C26.5796 17.1098 27.8282 16.6242 27.7241 17.8034C27.6894 18.289 27.4119 19.9884 27.1345 21.8265C26.7183 24.4277 26.2674 27.2716 26.2674 27.2716C26.2674 27.2716 26.1981 28.0693 25.6085 28.208C25.0189 28.3468 24.0478 27.7225 23.8744 27.5837C23.7356 27.4797 21.2732 25.919 20.3715 25.156C20.1287 24.9479 19.8513 24.5318 20.4062 24.0462C21.6547 22.9017 23.146 21.4797 24.0478 20.578C24.464 20.1618 24.8801 19.1907 23.146 20.3699C20.6836 22.0693 18.2559 23.6647 18.2559 23.6647C18.2559 23.6647 17.701 24.0115 16.6605 23.6993C15.62 23.3872 14.4062 22.971 14.4062 22.971C14.4062 22.971 13.5738 22.4508 14.9958 21.8959Z" fill="white"/>
</g>
<defs>
<clipPath id="clip0_2970_8882">
<rect width="24" height="24" fill="white" transform="translate(10 10)"/>
</clipPath>
</defs>
</svg>
