<svg width="24" height="24" viewBox="0 0 24 24" fill="none" xmlns="http://www.w3.org/2000/svg">
<g clip-path="url(#clip0_2970_8882)">
<path d="M12 24C18.6274 24 24 18.6274 24 12C24 5.37259 18.6274 0 12 0C5.37259 0 0 5.37259 0 12C0 18.6274 5.37259 24 12 24Z" fill="#34AADF"/>
<path d="M4.99578 11.8959C4.99578 11.8959 10.9958 9.43349 13.0767 8.56642C13.8744 8.21962 16.5796 7.10976 16.5796 7.10976C16.5796 7.10976 17.8282 6.62424 17.7241 7.80341C17.6894 8.28898 17.4119 9.98837 17.1345 11.8265C16.7183 14.4277 16.2674 17.2716 16.2674 17.2716C16.2674 17.2716 16.1981 18.0693 15.6085 18.208C15.0189 18.3468 14.0478 17.7225 13.8744 17.5837C13.7356 17.4797 11.2732 15.919 10.3715 15.156C10.1287 14.9479 9.85127 14.5318 10.4062 14.0462C11.6547 12.9017 13.146 11.4797 14.0478 10.578C14.464 10.1618 14.8801 9.19071 13.146 10.3699C10.6836 12.0693 8.25589 13.6647 8.25589 13.6647C8.25589 13.6647 7.70097 14.0115 6.66052 13.6993C5.62002 13.3872 4.40615 12.971 4.40615 12.971C4.40615 12.971 3.57383 12.4508 4.99578 11.8959Z" fill="white"/>
</g>
<defs>
<clipPath id="clip0_2970_8882">
<rect width="24" height="24" fill="white"/>
</clipPath>
</defs>
</svg>
