<svg width="20" height="20" viewBox="0 0 20 20" fill="none" xmlns="http://www.w3.org/2000/svg">
<g clip-path="url(#clip0_2970_8854)">
<path fill-rule="evenodd" clip-rule="evenodd" d="M12.3798 11.1691C12.0013 11.3238 11.7595 11.9164 11.5142 12.2191C11.3884 12.3742 11.2384 12.3984 11.045 12.3207C9.62433 11.7547 8.53527 10.8066 7.75128 9.49922C7.61847 9.29648 7.6423 9.13633 7.80245 8.94805C8.03917 8.66914 8.33683 8.35234 8.40089 7.97656C8.54308 7.14531 7.45636 4.5668 6.0212 5.73516C1.89152 9.10039 12.9103 18.0258 14.8989 13.1984C15.4614 11.8301 13.0071 10.9121 12.3798 11.1691ZM9.9923 18.2531C8.53175 18.2531 7.09464 17.8648 5.83644 17.1297C5.63448 17.0113 5.39034 16.9801 5.16456 17.0414L2.43058 17.7918L3.38292 15.6938C3.44662 15.5537 3.47215 15.3993 3.45692 15.2461C3.44169 15.093 3.38624 14.9467 3.2962 14.8219C2.27745 13.4098 1.73878 11.7426 1.73878 10C1.73878 5.44883 5.44113 1.74648 9.9923 1.74648C14.5435 1.74648 18.2454 5.44883 18.2454 10C18.2454 14.5508 14.5431 18.2531 9.9923 18.2531ZM9.9923 0C4.47823 0 -0.00770293 4.48594 -0.00770293 10C-0.00770293 11.9398 0.543078 13.8027 1.58956 15.4195L0.0704221 18.7652C0.00177599 18.9164 -0.0224095 19.0839 0.000695798 19.2483C0.0238011 19.4126 0.0932414 19.567 0.200891 19.6934C0.282993 19.7894 0.384934 19.8666 0.499704 19.9195C0.614473 19.9725 0.739346 19.9999 0.865735 20C1.42902 20 4.5005 19.0348 5.28214 18.8203C6.72706 19.5934 8.34777 20 9.9923 20C15.506 20 19.9923 15.5137 19.9923 10C19.9923 4.48594 15.506 0 9.9923 0Z" fill="#39AE41"/>
</g>
<defs>
<clipPath id="clip0_2970_8854">
<rect width="20" height="20" fill="white"/>
</clipPath>
</defs>
</svg>
