<svg width="45" height="45" viewBox="0 0 45 45" fill="none" xmlns="http://www.w3.org/2000/svg">
<circle cx="22.5" cy="22.5" r="22" fill="white" stroke="#EBEBEB"/>
<g clip-path="url(#clip0_2970_8854)">
<path fill-rule="evenodd" clip-rule="evenodd" d="M25.3798 23.1691C25.0013 23.3238 24.7595 23.9164 24.5142 24.2191C24.3884 24.3742 24.2384 24.3984 24.045 24.3207C22.6243 23.7547 21.5353 22.8066 20.7513 21.4992C20.6185 21.2965 20.6423 21.1363 20.8025 20.948C21.0392 20.6691 21.3368 20.3523 21.4009 19.9766C21.5431 19.1453 20.4564 16.5668 19.0212 17.7352C14.8915 21.1004 25.9103 30.0258 27.8989 25.1984C28.4614 23.8301 26.0071 22.9121 25.3798 23.1691ZM22.9923 30.2531C21.5318 30.2531 20.0946 29.8648 18.8364 29.1297C18.6345 29.0113 18.3903 28.9801 18.1646 29.0414L15.4306 29.7918L16.3829 27.6938C16.4466 27.5537 16.4721 27.3993 16.4569 27.2461C16.4417 27.093 16.3862 26.9467 16.2962 26.8219C15.2775 25.4098 14.7388 23.7426 14.7388 22C14.7388 17.4488 18.4411 13.7465 22.9923 13.7465C27.5435 13.7465 31.2454 17.4488 31.2454 22C31.2454 26.5508 27.5431 30.2531 22.9923 30.2531ZM22.9923 12C17.4782 12 12.9923 16.4859 12.9923 22C12.9923 23.9398 13.5431 25.8027 14.5896 27.4195L13.0704 30.7652C13.0018 30.9164 12.9776 31.0839 13.0007 31.2483C13.0238 31.4126 13.0932 31.567 13.2009 31.6934C13.283 31.7894 13.3849 31.8666 13.4997 31.9195C13.6145 31.9725 13.7393 31.9999 13.8657 32C14.429 32 17.5005 31.0348 18.2821 30.8203C19.7271 31.5934 21.3478 32 22.9923 32C28.506 32 32.9923 27.5137 32.9923 22C32.9923 16.4859 28.506 12 22.9923 12Z" fill="#39AE41"/>
</g>
<defs>
<clipPath id="clip0_2970_8854">
<rect width="20" height="20" fill="white" transform="translate(13 12)"/>
</clipPath>
</defs>
</svg>
